G75*
%MOIN*%
%OFA0B0*%
%FSLAX24Y24*%
%IPPOS*%
%LPD*%
%AMOC8*
5,1,8,0,0,1.08239X$1,22.5*
%
%ADD10C,0.0080*%
%ADD11R,0.0512X0.0591*%
%ADD12R,0.0276X0.0669*%
%ADD13R,0.0220X0.0500*%
%ADD14R,0.0500X0.0220*%
%ADD15C,0.0600*%
%ADD16R,0.0709X0.0551*%
%ADD17R,0.0591X0.0512*%
%ADD18R,0.1024X0.0866*%
%ADD19R,0.0394X0.0551*%
%ADD20R,0.0720X0.2000*%
%ADD21R,0.0880X0.0480*%
%ADD22R,0.0866X0.1417*%
%ADD23C,0.0472*%
%ADD24C,0.0531*%
%ADD25OC8,0.0600*%
D10*
X003400Y002400D02*
X013264Y002400D01*
X013264Y017194D01*
X003400Y017194D01*
X003400Y002400D01*
D11*
X009088Y008025D03*
X009837Y008025D03*
X010526Y013025D03*
X011274Y013025D03*
X011274Y014150D03*
X010526Y014150D03*
X011403Y016355D03*
X012151Y016355D03*
X006087Y015213D03*
X005338Y015213D03*
D12*
X008703Y013275D03*
X009175Y013275D03*
X009647Y013275D03*
D13*
X009618Y012215D03*
X009932Y012215D03*
X010247Y012215D03*
X010562Y012215D03*
X010877Y012215D03*
X009303Y012215D03*
X008988Y012215D03*
X008673Y012215D03*
X008673Y008835D03*
X008988Y008835D03*
X009303Y008835D03*
X009618Y008835D03*
X009932Y008835D03*
X010247Y008835D03*
X010562Y008835D03*
X010877Y008835D03*
D14*
X011465Y009423D03*
X011465Y009738D03*
X011465Y010053D03*
X011465Y010368D03*
X011465Y010682D03*
X011465Y010997D03*
X011465Y011312D03*
X011465Y011627D03*
X008085Y011627D03*
X008085Y011312D03*
X008085Y010997D03*
X008085Y010682D03*
X008085Y010368D03*
X008085Y010053D03*
X008085Y009738D03*
X008085Y009423D03*
D15*
X005400Y010088D03*
X012525Y010525D03*
X012525Y011525D03*
X012525Y012525D03*
X012525Y013525D03*
X012525Y009525D03*
X012525Y008525D03*
D16*
X005450Y006870D03*
X005450Y005531D03*
D17*
X006525Y005963D03*
X007463Y005963D03*
X007463Y006712D03*
X006525Y006712D03*
X008338Y006712D03*
X008338Y005963D03*
X010650Y005963D03*
X010650Y006712D03*
X011463Y006712D03*
X012338Y006712D03*
X012338Y005963D03*
X011463Y005963D03*
D18*
X006134Y011374D03*
X004166Y011374D03*
X004166Y016288D03*
X006135Y016288D03*
D19*
X009463Y006771D03*
X009837Y005904D03*
X009088Y005904D03*
D20*
X009025Y003713D03*
X007900Y003713D03*
X006588Y003713D03*
X005463Y003713D03*
X004338Y003713D03*
X010150Y003713D03*
X011400Y003713D03*
X012525Y003713D03*
D21*
X004243Y012534D03*
X004243Y013444D03*
X004243Y014354D03*
D22*
X006683Y013444D03*
D23*
X008517Y016381D03*
X009304Y016381D03*
X010091Y016381D03*
D24*
X010100Y015588D03*
X010887Y015588D03*
X011675Y015588D03*
X012462Y015588D03*
X012462Y014800D03*
X011675Y014800D03*
X010887Y014800D03*
X010100Y014800D03*
X009312Y014800D03*
X008525Y014800D03*
X008525Y015588D03*
X009312Y015588D03*
D25*
X006400Y010088D03*
X006400Y009088D03*
X005400Y009088D03*
X005400Y008088D03*
X006400Y008088D03*
M02*
