%
M48
M72
T01C0.0157
T02C0.0236
T03C0.0315
T04C0.0354
T05C0.0400
%
T01
X4713Y6400
X8338Y7150
X9900Y6463
X10650Y7150
X11463Y7150
X12775Y7900
X10588Y10463
X9775Y10400
X8650Y10400
X8713Y11338
X8963Y11650
X6838Y11338
X7150Y9400
X7650Y9150
X10088Y13525
X11025Y13650
T02
X4338Y5025
X9025Y5025
X11400Y5025
X10400Y8025
X4275Y15213
X6963Y16275
X10838Y16338
X12619Y16525
T03
X10091Y16381
X9304Y16381
X8517Y16381
T04
X8525Y15588
X9312Y15588
X10100Y15588
X10887Y15588
X11675Y15588
X12462Y15588
X12462Y14800
X11675Y14800
X10887Y14800
X10100Y14800
X9312Y14800
X8525Y14800
T05
X12525Y13525
X12525Y12525
X12525Y11525
X12525Y10525
X12525Y9525
X12525Y8525
X6400Y8088
X5400Y8088
X5400Y9088
X6400Y9088
X6400Y10088
X5400Y10088
M30
