G75*
%MOIN*%
%OFA0B0*%
%FSLAX24Y24*%
%IPPOS*%
%LPD*%
%AMOC8*
5,1,8,0,0,1.08239X$1,22.5*
%
%ADD10C,0.0080*%
%ADD11C,0.0030*%
%ADD12C,0.0060*%
%ADD13R,0.0620X0.0240*%
%ADD14C,0.0040*%
%ADD15C,0.0050*%
D10*
X003400Y002400D02*
X013264Y002400D01*
X013264Y017194D01*
X003400Y017194D01*
X003400Y002400D01*
X005253Y006004D02*
X005647Y006004D01*
X005450Y006398D01*
X005253Y006004D01*
X004763Y012154D02*
X004763Y014734D01*
X006163Y014734D01*
X006163Y012154D01*
X004763Y012154D01*
X008447Y013019D02*
X008447Y013531D01*
X008506Y013531D01*
X008506Y013019D02*
X008447Y013019D01*
X009844Y013019D02*
X009884Y013019D01*
X009884Y013531D01*
X009844Y013531D01*
D11*
X009893Y013915D02*
X009845Y013963D01*
X009845Y014060D01*
X009893Y014108D01*
X009893Y014210D02*
X009845Y014258D01*
X009845Y014355D01*
X009893Y014403D01*
X009942Y014403D01*
X010135Y014210D01*
X010135Y014403D01*
X010087Y014108D02*
X010135Y014060D01*
X010135Y013963D01*
X010087Y013915D01*
X009893Y013915D01*
X008953Y013728D02*
X008760Y013728D01*
X008856Y013728D02*
X008856Y014018D01*
X008760Y013921D01*
X008658Y013969D02*
X008658Y013776D01*
X008610Y013728D01*
X008513Y013728D01*
X008465Y013776D01*
X008465Y013969D01*
X008513Y014018D01*
X008610Y014018D01*
X008658Y013969D01*
X008562Y013824D02*
X008658Y013728D01*
X007004Y012136D02*
X006714Y012136D01*
X006859Y011991D01*
X006859Y012184D01*
X006762Y011890D02*
X006714Y011841D01*
X006714Y011744D01*
X006762Y011696D01*
X006956Y011696D01*
X007004Y011744D01*
X007004Y011841D01*
X006956Y011890D01*
X004553Y014684D02*
X004553Y014780D01*
X004553Y014732D02*
X004262Y014732D01*
X004262Y014684D02*
X004262Y014780D01*
X004311Y014880D02*
X004504Y014880D01*
X004553Y014929D01*
X004553Y015025D01*
X004504Y015074D01*
X004553Y015175D02*
X004553Y015368D01*
X004553Y015272D02*
X004262Y015272D01*
X004359Y015175D01*
X004311Y015074D02*
X004262Y015025D01*
X004262Y014929D01*
X004311Y014880D01*
X006407Y015026D02*
X006456Y014978D01*
X006649Y014978D01*
X006698Y015026D01*
X006698Y015123D01*
X006649Y015171D01*
X006698Y015272D02*
X006698Y015466D01*
X006698Y015369D02*
X006407Y015369D01*
X006504Y015272D01*
X006456Y015171D02*
X006407Y015123D01*
X006407Y015026D01*
X007313Y016008D02*
X007506Y016008D01*
X007555Y016056D01*
X007555Y016153D01*
X007506Y016202D01*
X007506Y016303D02*
X007555Y016351D01*
X007555Y016448D01*
X007506Y016496D01*
X007409Y016496D01*
X007361Y016448D01*
X007361Y016399D01*
X007409Y016303D01*
X007264Y016303D01*
X007264Y016496D01*
X007313Y016202D02*
X007264Y016153D01*
X007264Y016056D01*
X007313Y016008D01*
X011538Y016821D02*
X011586Y016772D01*
X011683Y016772D01*
X011732Y016821D01*
X011833Y016821D02*
X011881Y016772D01*
X011978Y016772D01*
X012026Y016821D01*
X012026Y016869D01*
X011978Y016917D01*
X011833Y016917D01*
X011833Y016821D01*
X011833Y016917D02*
X011929Y017014D01*
X012026Y017063D01*
X011732Y017014D02*
X011683Y017063D01*
X011586Y017063D01*
X011538Y017014D01*
X011538Y016821D01*
X011460Y012643D02*
X011460Y012498D01*
X011556Y012546D01*
X011605Y012546D01*
X011653Y012498D01*
X011653Y012401D01*
X011605Y012353D01*
X011508Y012353D01*
X011460Y012401D01*
X011358Y012353D02*
X011262Y012449D01*
X011310Y012449D02*
X011165Y012449D01*
X011165Y012353D02*
X011165Y012643D01*
X011310Y012643D01*
X011358Y012594D01*
X011358Y012498D01*
X011310Y012449D01*
X011460Y012643D02*
X011653Y012643D01*
X011619Y012205D02*
X011619Y011915D01*
X011522Y011915D02*
X011716Y011915D01*
X011522Y012108D02*
X011619Y012205D01*
X011421Y012205D02*
X011421Y011963D01*
X011373Y011915D01*
X011276Y011915D01*
X011228Y011963D01*
X011228Y012205D01*
X009630Y007605D02*
X009533Y007605D01*
X009485Y007557D01*
X009383Y007557D02*
X009335Y007605D01*
X009238Y007605D01*
X009190Y007557D01*
X009190Y007363D01*
X009238Y007315D01*
X009335Y007315D01*
X009383Y007363D01*
X009485Y007363D02*
X009533Y007315D01*
X009630Y007315D01*
X009678Y007363D01*
X009678Y007412D01*
X009630Y007460D01*
X009581Y007460D01*
X009630Y007460D02*
X009678Y007508D01*
X009678Y007557D01*
X009630Y007605D01*
X007716Y007393D02*
X007619Y007344D01*
X007522Y007248D01*
X007667Y007248D01*
X007716Y007199D01*
X007716Y007151D01*
X007667Y007103D01*
X007571Y007103D01*
X007522Y007151D01*
X007522Y007248D01*
X007421Y007248D02*
X007373Y007199D01*
X007228Y007199D01*
X007324Y007199D02*
X007421Y007103D01*
X007421Y007248D02*
X007421Y007344D01*
X007373Y007393D01*
X007228Y007393D01*
X007228Y007103D01*
X006135Y006466D02*
X006135Y006272D01*
X005942Y006466D01*
X005893Y006466D01*
X005845Y006417D01*
X005845Y006321D01*
X005893Y006272D01*
X005893Y006171D02*
X005990Y006171D01*
X006038Y006123D01*
X006038Y005978D01*
X006038Y006074D02*
X006135Y006171D01*
X006135Y005978D02*
X005845Y005978D01*
X005845Y006123D01*
X005893Y006171D01*
X004948Y006015D02*
X004948Y005821D01*
X004948Y005918D02*
X004658Y005918D01*
X004754Y005821D01*
X004706Y005720D02*
X004658Y005672D01*
X004658Y005527D01*
X004948Y005527D01*
X004948Y005672D01*
X004899Y005720D01*
X004706Y005720D01*
X005151Y007190D02*
X005103Y007238D01*
X005151Y007190D02*
X005248Y007190D01*
X005296Y007238D01*
X005296Y007287D01*
X005248Y007335D01*
X005151Y007335D01*
X005103Y007383D01*
X005103Y007432D01*
X005151Y007480D01*
X005248Y007480D01*
X005296Y007432D01*
X005397Y007480D02*
X005397Y007287D01*
X005494Y007190D01*
X005591Y007287D01*
X005591Y007480D01*
X005692Y007383D02*
X005789Y007480D01*
X005789Y007190D01*
X005885Y007190D02*
X005692Y007190D01*
X008103Y005580D02*
X008248Y005580D01*
X008296Y005532D01*
X008296Y005435D01*
X008248Y005387D01*
X008103Y005387D01*
X008199Y005387D02*
X008296Y005290D01*
X008397Y005290D02*
X008397Y005338D01*
X008591Y005532D01*
X008591Y005580D01*
X008397Y005580D01*
X008103Y005580D02*
X008103Y005290D01*
X009290Y005580D02*
X009483Y005580D01*
X009387Y005580D02*
X009387Y005290D01*
X009585Y005290D02*
X009778Y005290D01*
X009681Y005290D02*
X009681Y005580D01*
X009585Y005483D01*
X010478Y005387D02*
X010623Y005387D01*
X010671Y005435D01*
X010671Y005532D01*
X010623Y005580D01*
X010478Y005580D01*
X010478Y005290D01*
X010574Y005387D02*
X010671Y005290D01*
X010772Y005290D02*
X010966Y005290D01*
X010869Y005290D02*
X010869Y005580D01*
X010772Y005483D01*
X011228Y005449D02*
X011373Y005449D01*
X011421Y005498D01*
X011421Y005594D01*
X011373Y005643D01*
X011228Y005643D01*
X011228Y005353D01*
X011324Y005449D02*
X011421Y005353D01*
X011522Y005401D02*
X011571Y005353D01*
X011667Y005353D01*
X011716Y005401D01*
X011716Y005449D01*
X011667Y005498D01*
X011619Y005498D01*
X011667Y005498D02*
X011716Y005546D01*
X011716Y005594D01*
X011667Y005643D01*
X011571Y005643D01*
X011522Y005594D01*
X012103Y005580D02*
X012103Y005290D01*
X012103Y005387D02*
X012248Y005387D01*
X012296Y005435D01*
X012296Y005532D01*
X012248Y005580D01*
X012103Y005580D01*
X012199Y005387D02*
X012296Y005290D01*
X012397Y005435D02*
X012591Y005435D01*
X012542Y005290D02*
X012542Y005580D01*
X012397Y005435D01*
D12*
X012065Y004813D02*
X012065Y002613D01*
X012985Y002613D01*
X012985Y004813D01*
X012065Y004813D01*
X011860Y004813D02*
X010940Y004813D01*
X010940Y002613D01*
X011860Y002613D01*
X011860Y004813D01*
X010610Y004813D02*
X009690Y004813D01*
X009690Y002613D01*
X010610Y002613D01*
X010610Y004813D01*
X009485Y004813D02*
X008565Y004813D01*
X008565Y002613D01*
X009485Y002613D01*
X009485Y004813D01*
X008360Y004813D02*
X007440Y004813D01*
X007440Y002613D01*
X008360Y002613D01*
X008360Y004813D01*
X007048Y004813D02*
X007048Y002613D01*
X006128Y002613D01*
X006128Y004813D01*
X007048Y004813D01*
X005923Y004813D02*
X005923Y002613D01*
X005003Y002613D01*
X005003Y004813D01*
X005923Y004813D01*
X004798Y004813D02*
X004798Y002613D01*
X003878Y002613D01*
X003878Y004813D01*
X004798Y004813D01*
X005150Y007588D02*
X004900Y007838D01*
X004900Y008338D01*
X005150Y008588D01*
X004900Y008838D01*
X004900Y009338D01*
X005150Y009588D01*
X004900Y009838D01*
X004900Y010338D01*
X005150Y010588D01*
X006650Y010588D01*
X006900Y010338D01*
X006900Y009838D01*
X006650Y009588D01*
X006900Y009338D01*
X006900Y008838D01*
X006650Y008588D01*
X006900Y008338D01*
X006900Y007838D01*
X006650Y007588D01*
X005150Y007588D01*
X008395Y009145D02*
X008395Y011905D01*
X011015Y011905D01*
X011155Y011765D01*
X011155Y009145D01*
X008395Y009145D01*
X010714Y011605D02*
X010716Y011628D01*
X010722Y011651D01*
X010731Y011672D01*
X010744Y011692D01*
X010760Y011709D01*
X010778Y011723D01*
X010798Y011734D01*
X010820Y011742D01*
X010843Y011746D01*
X010867Y011746D01*
X010890Y011742D01*
X010912Y011734D01*
X010932Y011723D01*
X010950Y011709D01*
X010966Y011692D01*
X010979Y011672D01*
X010988Y011651D01*
X010994Y011628D01*
X010996Y011605D01*
X010994Y011582D01*
X010988Y011559D01*
X010979Y011538D01*
X010966Y011518D01*
X010950Y011501D01*
X010932Y011487D01*
X010912Y011476D01*
X010890Y011468D01*
X010867Y011464D01*
X010843Y011464D01*
X010820Y011468D01*
X010798Y011476D01*
X010778Y011487D01*
X010760Y011501D01*
X010744Y011518D01*
X010731Y011538D01*
X010722Y011559D01*
X010716Y011582D01*
X010714Y011605D01*
D13*
X005450Y006421D03*
D14*
X006622Y012419D02*
X006622Y012606D01*
X006482Y012559D02*
X006622Y012419D01*
X006482Y012559D02*
X006763Y012559D01*
X004063Y012814D02*
X004016Y012767D01*
X004063Y012814D02*
X004063Y012907D01*
X004016Y012954D01*
X003969Y012954D01*
X003922Y012907D01*
X003922Y012861D01*
X003922Y012907D02*
X003876Y012954D01*
X003829Y012954D01*
X003782Y012907D01*
X003782Y012814D01*
X003829Y012767D01*
X003825Y013677D02*
X003779Y013724D01*
X003779Y013817D01*
X003825Y013864D01*
X003872Y013864D01*
X004059Y013677D01*
X004059Y013864D01*
X004063Y014528D02*
X004063Y014715D01*
X004063Y014622D02*
X003782Y014622D01*
X003876Y014528D01*
D15*
X004725Y010202D02*
X004725Y009902D01*
X004725Y010052D02*
X004275Y010052D01*
X004425Y009902D01*
X006175Y007352D02*
X006250Y007202D01*
X006400Y007052D01*
X006400Y007277D01*
X006475Y007352D01*
X006550Y007352D01*
X006625Y007277D01*
X006625Y007127D01*
X006550Y007052D01*
X006400Y007052D01*
M02*
