G75*
%MOIN*%
%OFA0B0*%
%FSLAX24Y24*%
%IPPOS*%
%LPD*%
%AMOC8*
5,1,8,0,0,1.08239X$1,22.5*
%
%ADD10C,0.0080*%
%ADD11R,0.0512X0.0591*%
%ADD12R,0.0276X0.0669*%
%ADD13R,0.0220X0.0500*%
%ADD14R,0.0500X0.0220*%
%ADD15C,0.0600*%
%ADD16R,0.0709X0.0551*%
%ADD17R,0.0591X0.0512*%
%ADD18R,0.1024X0.0866*%
%ADD19R,0.0394X0.0551*%
%ADD20R,0.0720X0.2000*%
%ADD21R,0.0880X0.0480*%
%ADD22R,0.0866X0.1417*%
%ADD23C,0.0472*%
%ADD24C,0.0531*%
%ADD25OC8,0.0600*%
%ADD26C,0.0160*%
%ADD27C,0.0100*%
%ADD28C,0.0400*%
%ADD29C,0.0356*%
%ADD30C,0.0120*%
%ADD31C,0.0277*%
%ADD32C,0.0240*%
%ADD33C,0.0320*%
D10*
X003400Y002400D02*
X013264Y002400D01*
X013264Y017194D01*
X003400Y017194D01*
X003400Y002400D01*
D11*
X009088Y008025D03*
X009837Y008025D03*
X010526Y013025D03*
X011274Y013025D03*
X011274Y014150D03*
X010526Y014150D03*
X011403Y016355D03*
X012151Y016355D03*
X006087Y015213D03*
X005338Y015213D03*
D12*
X008703Y013275D03*
X009175Y013275D03*
X009647Y013275D03*
D13*
X009618Y012215D03*
X009932Y012215D03*
X010247Y012215D03*
X010562Y012215D03*
X010877Y012215D03*
X009303Y012215D03*
X008988Y012215D03*
X008673Y012215D03*
X008673Y008835D03*
X008988Y008835D03*
X009303Y008835D03*
X009618Y008835D03*
X009932Y008835D03*
X010247Y008835D03*
X010562Y008835D03*
X010877Y008835D03*
D14*
X011465Y009423D03*
X011465Y009738D03*
X011465Y010053D03*
X011465Y010368D03*
X011465Y010682D03*
X011465Y010997D03*
X011465Y011312D03*
X011465Y011627D03*
X008085Y011627D03*
X008085Y011312D03*
X008085Y010997D03*
X008085Y010682D03*
X008085Y010368D03*
X008085Y010053D03*
X008085Y009738D03*
X008085Y009423D03*
D15*
X005400Y010088D03*
X012525Y010525D03*
X012525Y011525D03*
X012525Y012525D03*
X012525Y013525D03*
X012525Y009525D03*
X012525Y008525D03*
D16*
X005450Y006870D03*
X005450Y005531D03*
D17*
X006525Y005963D03*
X007463Y005963D03*
X007463Y006712D03*
X006525Y006712D03*
X008338Y006712D03*
X008338Y005963D03*
X010650Y005963D03*
X010650Y006712D03*
X011463Y006712D03*
X012338Y006712D03*
X012338Y005963D03*
X011463Y005963D03*
D18*
X006134Y011374D03*
X004166Y011374D03*
X004166Y016288D03*
X006135Y016288D03*
D19*
X009463Y006771D03*
X009837Y005904D03*
X009088Y005904D03*
D20*
X009025Y003713D03*
X007900Y003713D03*
X006588Y003713D03*
X005463Y003713D03*
X004338Y003713D03*
X010150Y003713D03*
X011400Y003713D03*
X012525Y003713D03*
D21*
X004243Y012534D03*
X004243Y013444D03*
X004243Y014354D03*
D22*
X006683Y013444D03*
D23*
X008517Y016381D03*
X009304Y016381D03*
X010091Y016381D03*
D24*
X010100Y015588D03*
X010887Y015588D03*
X011675Y015588D03*
X012462Y015588D03*
X012462Y014800D03*
X011675Y014800D03*
X010887Y014800D03*
X010100Y014800D03*
X009312Y014800D03*
X008525Y014800D03*
X008525Y015588D03*
X009312Y015588D03*
D25*
X006400Y010088D03*
X006400Y009088D03*
X005400Y009088D03*
X005400Y008088D03*
X006400Y008088D03*
D26*
X008988Y008025D02*
X009088Y008025D01*
X009025Y008024D01*
X008988Y008025D02*
X008988Y008835D01*
X009932Y008835D02*
X009932Y008025D01*
X009837Y008025D01*
X012525Y008525D02*
X012525Y009525D01*
X011997Y010997D02*
X011465Y010997D01*
X011997Y010997D02*
X012525Y011525D01*
X009900Y011588D02*
X009303Y011588D01*
X009303Y012215D01*
X009900Y012183D02*
X009900Y011588D01*
X009900Y012183D02*
X009932Y012215D01*
X011385Y016338D02*
X011403Y016355D01*
X012151Y016355D02*
X012196Y016400D01*
X012494Y016400D01*
X012619Y016525D01*
X006135Y016288D02*
X006117Y016275D01*
D27*
X008517Y016381D02*
X008517Y016704D01*
X008713Y016900D01*
X012775Y016900D01*
X012931Y016744D01*
X012931Y015588D01*
X012462Y015588D01*
X012931Y015588D02*
X012931Y014244D01*
X012775Y014088D01*
X012150Y014088D01*
X011963Y013900D01*
X011963Y012525D01*
X012525Y012525D01*
X011963Y012525D02*
X011963Y011463D01*
X011812Y011312D01*
X011465Y011312D01*
X009932Y012215D02*
X009932Y012432D01*
X009525Y012775D02*
X009650Y012900D01*
X009650Y013272D01*
X009647Y013275D01*
X010088Y013525D02*
X010775Y013525D01*
X010900Y013400D01*
X010900Y012650D01*
X009525Y012775D02*
X009150Y012775D01*
X008988Y012613D01*
X008988Y012215D01*
X008703Y012245D02*
X008703Y013275D01*
X009150Y013300D02*
X009175Y013275D01*
X008703Y012245D02*
X008673Y012215D01*
X008062Y009400D02*
X007150Y009400D01*
D28*
X006838Y011338D02*
X006066Y011338D01*
X006134Y011374D01*
X004243Y011483D02*
X004243Y012534D01*
X004243Y013444D02*
X005194Y013444D01*
X005400Y013650D01*
X005400Y014275D01*
X005525Y014400D01*
X005900Y014400D01*
X006087Y014587D01*
X006087Y015213D01*
X006104Y015230D01*
X006135Y016288D01*
X005338Y015213D02*
X004305Y015213D01*
X004243Y015275D01*
X004243Y016181D01*
X004166Y016288D01*
X004243Y015275D02*
X004243Y015200D01*
X004243Y014354D01*
X004243Y011483D02*
X004166Y011374D01*
X004150Y011359D01*
X004166Y011374D02*
X004118Y011358D01*
X009932Y008025D02*
X010400Y008025D01*
X011400Y005025D02*
X011400Y003713D01*
X009025Y003713D02*
X009025Y005025D01*
X005463Y003713D02*
X005456Y003719D01*
X005450Y005531D01*
X004338Y005025D02*
X004338Y003713D01*
D29*
X004338Y005025D03*
X009025Y005025D03*
X011400Y005025D03*
X010400Y008025D03*
X004275Y015213D03*
X006963Y016275D03*
X010838Y016338D03*
X012619Y016525D03*
D30*
X011588Y014150D02*
X011274Y014150D01*
X011588Y014150D02*
X011713Y014025D01*
X011713Y013088D01*
X011650Y013025D01*
X011274Y013025D01*
X011275Y013024D01*
X011275Y012025D01*
X010900Y011650D01*
X010900Y010682D01*
X010680Y010463D01*
X010588Y010463D01*
X010275Y010525D02*
X010562Y010812D01*
X010562Y012215D01*
X010247Y012215D02*
X010247Y012497D01*
X010338Y012588D01*
X010838Y012588D01*
X010900Y012650D01*
X010526Y013025D02*
X010463Y013088D01*
X009932Y012557D01*
X009932Y012432D01*
X009618Y012555D02*
X009618Y012215D01*
X009618Y012555D02*
X010088Y013025D01*
X010088Y013525D01*
X010088Y013713D01*
X009963Y013838D01*
X009275Y013838D01*
X009150Y013713D01*
X009150Y013300D01*
X010526Y013774D02*
X010526Y014150D01*
X010526Y013774D02*
X010588Y013713D01*
X010963Y013713D01*
X011025Y013650D01*
X008963Y011650D02*
X008940Y011627D01*
X008085Y011627D01*
X008085Y011312D02*
X008687Y011312D01*
X008713Y011338D01*
X008555Y010682D02*
X008085Y010682D01*
X008555Y010682D02*
X008650Y010588D01*
X008650Y010400D01*
X008713Y009775D02*
X009338Y010400D01*
X009775Y010400D01*
X010275Y010525D02*
X010275Y010025D01*
X011463Y008838D01*
X011463Y008213D01*
X011775Y007900D01*
X012213Y007900D01*
X012900Y007213D01*
X012900Y006213D01*
X012713Y006025D01*
X012399Y006025D01*
X012338Y005963D01*
X012276Y006025D01*
X012338Y005963D02*
X012338Y005400D01*
X012525Y005213D01*
X012525Y003713D01*
X010838Y005088D02*
X011463Y005713D01*
X011463Y005963D01*
X011463Y006712D02*
X011463Y007150D01*
X010650Y007150D02*
X010650Y006712D01*
X009900Y006463D02*
X009837Y006399D01*
X009837Y005904D01*
X009088Y005904D02*
X008709Y005525D01*
X007088Y005525D01*
X006963Y005650D01*
X006963Y006712D01*
X007463Y006712D01*
X006963Y006712D02*
X006525Y006712D01*
X006525Y005963D02*
X006588Y005776D01*
X006588Y003713D01*
X007900Y003713D02*
X007900Y005025D01*
X008213Y005338D01*
X008838Y005338D01*
X008900Y005400D01*
X010588Y005400D01*
X010650Y005463D01*
X010650Y005963D01*
X009463Y006771D02*
X009403Y006712D01*
X008338Y006712D01*
X008338Y007150D01*
X007900Y007525D02*
X007895Y007520D01*
X007895Y005963D01*
X008338Y005963D01*
X007895Y005963D02*
X007463Y005963D01*
X004713Y006400D02*
X004713Y006807D01*
X004775Y006870D01*
X005900Y008588D02*
X006525Y008588D01*
X006775Y008838D01*
X008670Y008838D01*
X008673Y008835D01*
X008988Y008835D02*
X008988Y009425D01*
X009150Y009588D01*
X009963Y009588D01*
X010088Y009713D01*
X010088Y011213D01*
X009900Y011400D01*
X009900Y011588D01*
X010900Y010682D02*
X011465Y010682D01*
X012025Y010025D02*
X012525Y010525D01*
X012025Y010025D02*
X012025Y008400D01*
X012525Y007900D01*
X012775Y007900D01*
X010838Y005088D02*
X010338Y005088D01*
X010150Y004900D01*
X010150Y003713D01*
X005900Y008588D02*
X005400Y009088D01*
X006400Y009088D02*
X006400Y009463D01*
X006675Y009738D01*
X008085Y009738D01*
X008085Y009423D02*
X008062Y009400D01*
X008400Y009150D02*
X008713Y009463D01*
X008713Y009775D01*
X008400Y009150D02*
X007650Y009150D01*
X006400Y010088D02*
X005838Y010650D01*
X005338Y010650D01*
X005088Y010900D01*
X005025Y010900D01*
X004262Y015200D02*
X004275Y015213D01*
X004262Y015200D02*
X004243Y015200D01*
D31*
X008963Y011650D03*
X008713Y011338D03*
X008650Y010400D03*
X009775Y010400D03*
X010588Y010463D03*
X007650Y009150D03*
X007150Y009400D03*
X006838Y011338D03*
X010088Y013525D03*
X011025Y013650D03*
X012775Y007900D03*
X011463Y007150D03*
X010650Y007150D03*
X009900Y006463D03*
X008338Y007150D03*
X004713Y006400D03*
D32*
X004713Y007463D02*
X004463Y007713D01*
X004463Y010338D01*
X005025Y010900D01*
X005025Y011900D01*
X005338Y012213D01*
X005338Y013300D01*
X005194Y013444D01*
X006117Y016275D02*
X006963Y016275D01*
X009312Y015602D02*
X009312Y015588D01*
X009312Y015602D02*
X010091Y016381D01*
X010135Y016338D01*
X010838Y016338D01*
X011385Y016338D01*
X009088Y008025D02*
X009088Y007526D01*
X009025Y007463D01*
X008650Y007463D01*
X008588Y007525D01*
X007900Y007525D01*
X006900Y007525D01*
X006838Y007463D01*
X004713Y007463D01*
X009025Y007463D02*
X010338Y007463D01*
X010463Y007588D01*
X012150Y007588D01*
X012338Y007400D01*
X012338Y006712D01*
D33*
X005450Y006870D02*
X004775Y006870D01*
X004180Y006870D01*
X003838Y007213D01*
X003838Y010400D01*
X004150Y010713D01*
X004150Y011359D01*
M02*
