G75*
%MOIN*%
%OFA0B0*%
%FSLAX24Y24*%
%IPPOS*%
%LPD*%
%AMOC8*
5,1,8,0,0,1.08239X$1,22.5*
%
%ADD10C,0.0080*%
%ADD11C,0.0050*%
%ADD12C,0.0030*%
D10*
X003400Y002400D02*
X013264Y002400D01*
X013264Y017194D01*
X003400Y017194D01*
X003400Y002400D01*
X012025Y008275D02*
X012275Y008025D01*
X012775Y008025D01*
X013025Y008275D01*
X013025Y008775D01*
X012775Y009025D01*
X013025Y009275D01*
X013025Y009775D01*
X012775Y010025D01*
X013025Y010275D01*
X013025Y010775D01*
X012775Y011025D01*
X013025Y011275D01*
X013025Y011775D01*
X012775Y012025D01*
X013025Y012275D01*
X013025Y012775D01*
X012775Y013025D01*
X013025Y013275D01*
X013025Y013775D01*
X012775Y014025D01*
X012275Y014025D01*
X012025Y013775D01*
X012025Y013275D01*
X012275Y013025D01*
X012025Y012775D01*
X012025Y012275D01*
X012275Y012025D01*
X012025Y011775D01*
X012025Y011275D01*
X012275Y011025D01*
X012025Y010775D01*
X012025Y010275D01*
X012275Y010025D01*
X012025Y009775D01*
X012025Y009275D01*
X012275Y009025D01*
X012025Y008775D01*
X012025Y008275D01*
D11*
X010879Y008310D02*
X004973Y008310D01*
X004973Y016972D01*
X010879Y016972D01*
X010879Y008310D01*
X011405Y012699D02*
X011330Y012774D01*
X011330Y012849D01*
X011405Y012924D01*
X011780Y012924D01*
X011780Y012849D02*
X011780Y012999D01*
X011780Y013159D02*
X011780Y013384D01*
X011705Y013459D01*
X011555Y013459D01*
X011480Y013384D01*
X011480Y013159D01*
X011330Y013159D02*
X011780Y013159D01*
X011630Y013620D02*
X011780Y013770D01*
X011330Y013770D01*
X011330Y013620D02*
X011330Y013920D01*
X013131Y016375D02*
X013131Y002635D01*
X004076Y002635D01*
X004076Y016375D01*
X013131Y016375D01*
D12*
X010274Y015623D02*
X010274Y015499D01*
X010212Y015437D01*
X010274Y015316D02*
X010027Y015316D01*
X009903Y015193D01*
X010027Y015069D01*
X010274Y015069D01*
X010212Y014948D02*
X010150Y014948D01*
X010088Y014886D01*
X010027Y014948D01*
X009965Y014948D01*
X009903Y014886D01*
X009903Y014763D01*
X009965Y014701D01*
X010088Y014824D02*
X010088Y014886D01*
X010212Y014948D02*
X010274Y014886D01*
X010274Y014763D01*
X010212Y014701D01*
X009486Y014763D02*
X009424Y014701D01*
X009178Y014701D01*
X009116Y014763D01*
X009116Y014886D01*
X009178Y014948D01*
X009301Y014948D01*
X009301Y014824D01*
X009424Y014948D02*
X009486Y014886D01*
X009486Y014763D01*
X009486Y015069D02*
X009116Y015069D01*
X009116Y015316D02*
X009486Y015316D01*
X009486Y015437D02*
X009116Y015437D01*
X009116Y015623D01*
X009178Y015684D01*
X009424Y015684D01*
X009486Y015623D01*
X009486Y015437D01*
X009486Y015069D02*
X009116Y015316D01*
X008699Y015254D02*
X008699Y015069D01*
X008328Y015069D01*
X008452Y015069D02*
X008452Y015254D01*
X008514Y015316D01*
X008637Y015316D01*
X008699Y015254D01*
X008699Y015437D02*
X008328Y015684D01*
X008328Y015437D02*
X008699Y015684D01*
X008328Y015316D02*
X008452Y015193D01*
X009903Y015499D02*
X009965Y015437D01*
X009903Y015499D02*
X009903Y015623D01*
X009965Y015684D01*
X010027Y015684D01*
X010088Y015623D01*
X010088Y015561D01*
X010088Y015623D02*
X010150Y015684D01*
X010212Y015684D01*
X010274Y015623D01*
M02*
