G75*
%MOIN*%
%OFA0B0*%
%FSLAX24Y24*%
%IPPOS*%
%LPD*%
%AMOC8*
5,1,8,0,0,1.08239X$1,22.5*
%
%ADD10C,0.0080*%
%ADD11C,0.0070*%
%ADD12C,0.0600*%
%ADD13C,0.0472*%
%ADD14C,0.0531*%
%ADD15OC8,0.0600*%
%ADD16C,0.0356*%
%ADD17C,0.0120*%
%ADD18C,0.0160*%
%ADD19C,0.0277*%
D10*
X003400Y002400D02*
X013264Y002400D01*
X013264Y017194D01*
X003400Y017194D01*
X003400Y002400D01*
D11*
X004225Y003248D02*
X004225Y003878D01*
X004541Y003563D01*
X004120Y003563D01*
X004765Y003458D02*
X004765Y003878D01*
X005185Y003878D02*
X005185Y003458D01*
X004975Y003248D01*
X004765Y003458D01*
X006054Y003668D02*
X006474Y003248D01*
X006694Y003248D02*
X006904Y003248D01*
X006799Y003248D02*
X006799Y003668D01*
X006904Y003668D01*
X006799Y003878D02*
X006799Y003983D01*
X007123Y003878D02*
X007229Y003773D01*
X007229Y003248D01*
X007334Y003563D02*
X007123Y003563D01*
X006474Y003668D02*
X006054Y003248D01*
X008202Y003248D02*
X008202Y003878D01*
X008413Y003668D01*
X008623Y003878D01*
X008623Y003248D01*
X008847Y003353D02*
X008847Y003458D01*
X008952Y003563D01*
X009162Y003563D01*
X009267Y003668D01*
X009267Y003773D01*
X009162Y003878D01*
X008952Y003878D01*
X008847Y003773D01*
X009491Y003773D02*
X009597Y003878D01*
X009912Y003878D01*
X009912Y003248D01*
X009597Y003248D01*
X009491Y003353D01*
X009491Y003773D01*
X009267Y003353D02*
X009162Y003248D01*
X008952Y003248D01*
X008847Y003353D01*
X010136Y003248D02*
X010556Y003248D01*
X010136Y003668D01*
X010136Y003773D01*
X010241Y003878D01*
X010451Y003878D01*
X010556Y003773D01*
X010781Y003878D02*
X010781Y003248D01*
X011201Y003248D02*
X011201Y003878D01*
X010991Y003668D01*
X010781Y003878D01*
X011425Y003773D02*
X011425Y003563D01*
X011530Y003458D01*
X011845Y003458D01*
X011845Y003248D02*
X011845Y003878D01*
X011530Y003878D01*
X011425Y003773D01*
X012070Y003773D02*
X012070Y003563D01*
X012175Y003458D01*
X012490Y003458D01*
X012490Y003248D02*
X012490Y003878D01*
X012175Y003878D01*
X012070Y003773D01*
D12*
X012525Y008525D03*
X012525Y009525D03*
X012525Y010525D03*
X012525Y011525D03*
X012525Y012525D03*
X012525Y013525D03*
X005400Y010088D03*
D13*
X008517Y016381D03*
X009304Y016381D03*
X010091Y016381D03*
D14*
X010100Y015588D03*
X010887Y015588D03*
X011675Y015588D03*
X012462Y015588D03*
X012462Y014800D03*
X011675Y014800D03*
X010887Y014800D03*
X010100Y014800D03*
X009312Y014800D03*
X008525Y014800D03*
X008525Y015588D03*
X009312Y015588D03*
D15*
X006400Y010088D03*
X006400Y009088D03*
X005400Y009088D03*
X005400Y008088D03*
X006400Y008088D03*
D16*
X010400Y008025D03*
X011400Y005025D03*
X009025Y005025D03*
X004338Y005025D03*
X004275Y015213D03*
X006963Y016275D03*
X010838Y016338D03*
X012619Y016525D03*
D17*
X012964Y016502D02*
X011200Y016502D01*
X011175Y016563D02*
X011137Y016601D01*
X011137Y016772D01*
X011092Y016882D01*
X011080Y016894D01*
X012964Y016894D01*
X012964Y013822D01*
X012820Y013966D01*
X012628Y014045D01*
X012422Y014045D01*
X012230Y013966D01*
X012084Y013820D01*
X012078Y013805D01*
X011349Y013805D01*
X011329Y013853D01*
X011228Y013954D01*
X011096Y014009D01*
X010954Y014009D01*
X010822Y013954D01*
X010721Y013853D01*
X010666Y013721D01*
X010666Y013579D01*
X010721Y013447D01*
X010822Y013346D01*
X010954Y013291D01*
X010988Y013291D01*
X010991Y013288D01*
X011094Y013245D01*
X012078Y013245D01*
X012084Y013230D01*
X012230Y013084D01*
X012373Y013025D01*
X012230Y012966D01*
X012084Y012820D01*
X012005Y012628D01*
X012005Y012422D01*
X012084Y012230D01*
X012230Y012084D01*
X012373Y012025D01*
X012230Y011966D01*
X012084Y011820D01*
X012005Y011628D01*
X012005Y011422D01*
X012084Y011230D01*
X012230Y011084D01*
X012373Y011025D01*
X012230Y010966D01*
X012084Y010820D01*
X012005Y010628D01*
X012005Y010422D01*
X012084Y010230D01*
X012230Y010084D01*
X012422Y010005D01*
X012628Y010005D01*
X012820Y010084D01*
X012964Y010228D01*
X012964Y009663D01*
X012951Y009702D01*
X012918Y009766D01*
X012876Y009825D01*
X012825Y009876D01*
X012766Y009918D01*
X012702Y009951D01*
X012633Y009974D01*
X012565Y009984D01*
X012485Y009984D01*
X012417Y009974D01*
X012348Y009951D01*
X012284Y009918D01*
X012225Y009876D01*
X012174Y009825D01*
X012132Y009766D01*
X012099Y009702D01*
X012076Y009633D01*
X012066Y009565D01*
X012485Y009565D01*
X012485Y009984D01*
X012483Y009984D02*
X011742Y009984D01*
X011742Y009866D02*
X012215Y009866D01*
X012122Y009747D02*
X011742Y009747D01*
X011742Y009629D02*
X012076Y009629D01*
X012066Y009485D02*
X012076Y009417D01*
X012099Y009348D01*
X012132Y009284D01*
X012174Y009225D01*
X012225Y009174D01*
X012284Y009132D01*
X012348Y009099D01*
X012417Y009076D01*
X012485Y009066D01*
X012485Y009485D01*
X012565Y009485D01*
X012565Y009066D01*
X012633Y009076D01*
X012702Y009099D01*
X012766Y009132D01*
X012825Y009174D01*
X012876Y009225D01*
X012918Y009284D01*
X012951Y009348D01*
X012964Y009387D01*
X012964Y008663D01*
X012951Y008702D01*
X012918Y008766D01*
X012876Y008825D01*
X012825Y008876D01*
X012766Y008918D01*
X012702Y008951D01*
X012633Y008974D01*
X012565Y008984D01*
X012565Y008565D01*
X012485Y008565D01*
X012485Y008984D01*
X012417Y008974D01*
X012348Y008951D01*
X012284Y008918D01*
X012225Y008876D01*
X012174Y008825D01*
X012132Y008766D01*
X012099Y008702D01*
X012076Y008633D01*
X012066Y008565D01*
X012485Y008565D01*
X012485Y008485D01*
X012066Y008485D01*
X012076Y008417D01*
X012099Y008348D01*
X012132Y008284D01*
X012174Y008225D01*
X012225Y008174D01*
X012284Y008132D01*
X012348Y008099D01*
X012417Y008076D01*
X012457Y008070D01*
X012416Y007971D01*
X012416Y007829D01*
X012471Y007697D01*
X012495Y007673D01*
X012495Y007141D01*
X012472Y007117D01*
X011821Y007117D01*
X011821Y007221D01*
X011767Y007353D01*
X011742Y007377D01*
X011742Y010581D01*
X011700Y010684D01*
X010575Y011809D01*
X010496Y011887D01*
X010393Y011930D01*
X009190Y011930D01*
X009166Y011954D01*
X009034Y012009D01*
X008891Y012009D01*
X008759Y011954D01*
X008658Y011853D01*
X008604Y011721D01*
X008604Y011681D01*
X008509Y011642D01*
X008408Y011541D01*
X008354Y011409D01*
X008354Y011266D01*
X008408Y011134D01*
X008509Y011033D01*
X008641Y010979D01*
X008784Y010979D01*
X008916Y011033D01*
X008940Y011058D01*
X010159Y011058D01*
X010431Y010786D01*
X010384Y010767D01*
X010298Y010680D01*
X010002Y010680D01*
X009978Y010704D01*
X009846Y010759D01*
X009704Y010759D01*
X009572Y010704D01*
X009471Y010603D01*
X009416Y010471D01*
X009416Y010329D01*
X009471Y010197D01*
X009572Y010096D01*
X009704Y010041D01*
X009846Y010041D01*
X009978Y010096D01*
X010002Y010120D01*
X010477Y010120D01*
X010516Y010104D01*
X010620Y010104D01*
X010620Y007516D01*
X010613Y007509D01*
X010579Y007509D01*
X010447Y007454D01*
X010346Y007353D01*
X010291Y007221D01*
X010291Y007117D01*
X008696Y007117D01*
X008696Y007221D01*
X008642Y007353D01*
X008617Y007377D01*
X008617Y009972D01*
X008687Y010041D01*
X008721Y010041D01*
X008853Y010096D01*
X008954Y010197D01*
X009009Y010329D01*
X009009Y010471D01*
X008954Y010603D01*
X008853Y010704D01*
X008721Y010759D01*
X008579Y010759D01*
X008447Y010704D01*
X008346Y010603D01*
X008291Y010471D01*
X008291Y010437D01*
X008100Y010246D01*
X008058Y010143D01*
X008058Y007377D01*
X008033Y007353D01*
X007979Y007221D01*
X007979Y007117D01*
X005094Y007117D01*
X004991Y007075D01*
X004675Y006759D01*
X004641Y006759D01*
X004509Y006704D01*
X004408Y006603D01*
X004354Y006471D01*
X004354Y006329D01*
X004408Y006197D01*
X004509Y006096D01*
X004641Y006041D01*
X004784Y006041D01*
X004916Y006096D01*
X005017Y006197D01*
X005071Y006329D01*
X005071Y006363D01*
X005266Y006558D01*
X012643Y006558D01*
X012746Y006600D01*
X012825Y006679D01*
X012964Y006818D01*
X012964Y002700D01*
X003700Y002700D01*
X003700Y016894D01*
X006720Y016894D01*
X006708Y016882D01*
X006663Y016772D01*
X006663Y016538D01*
X006625Y016501D01*
X006564Y016354D01*
X006564Y016196D01*
X006625Y016049D01*
X006737Y015937D01*
X006883Y015877D01*
X007042Y015877D01*
X007188Y015937D01*
X007300Y016049D01*
X007361Y016196D01*
X007361Y016354D01*
X007300Y016501D01*
X007263Y016538D01*
X008088Y016538D01*
X008060Y016472D01*
X008060Y016291D01*
X008130Y016123D01*
X008258Y015995D01*
X008329Y015965D01*
X008302Y015952D01*
X008248Y015912D01*
X008200Y015865D01*
X008161Y015811D01*
X008130Y015751D01*
X008110Y015687D01*
X008099Y015621D01*
X008099Y015616D01*
X008496Y015616D01*
X008496Y015559D01*
X008099Y015559D01*
X008099Y015554D01*
X008110Y015488D01*
X008130Y015424D01*
X008161Y015364D01*
X008200Y015310D01*
X008248Y015263D01*
X008293Y015230D01*
X008250Y015212D01*
X008113Y015075D01*
X008039Y014897D01*
X008039Y014703D01*
X008113Y014525D01*
X008250Y014388D01*
X008428Y014314D01*
X008622Y014314D01*
X008800Y014388D01*
X008919Y014507D01*
X009037Y014388D01*
X009216Y014314D01*
X009409Y014314D01*
X009588Y014388D01*
X009706Y014507D01*
X009825Y014388D01*
X010003Y014314D01*
X010196Y014314D01*
X010375Y014388D01*
X010494Y014507D01*
X010612Y014388D01*
X010791Y014314D01*
X010984Y014314D01*
X011162Y014388D01*
X011281Y014507D01*
X011399Y014388D01*
X011578Y014314D01*
X011771Y014314D01*
X011950Y014388D01*
X012068Y014507D01*
X012187Y014388D01*
X012365Y014314D01*
X012559Y014314D01*
X012737Y014388D01*
X012874Y014525D01*
X012948Y014703D01*
X012948Y014897D01*
X012874Y015075D01*
X012755Y015194D01*
X012874Y015312D01*
X012948Y015491D01*
X012948Y015684D01*
X012874Y015863D01*
X012737Y015999D01*
X012559Y016073D01*
X012365Y016073D01*
X012187Y015999D01*
X012068Y015881D01*
X011950Y015999D01*
X011771Y016073D01*
X011578Y016073D01*
X011399Y015999D01*
X011281Y015881D01*
X011162Y015999D01*
X011092Y016029D01*
X011175Y016112D01*
X011236Y016258D01*
X011236Y016417D01*
X011175Y016563D01*
X011137Y016620D02*
X012964Y016620D01*
X012964Y016739D02*
X011137Y016739D01*
X011102Y016857D02*
X012964Y016857D01*
X012964Y016383D02*
X011236Y016383D01*
X011236Y016265D02*
X012964Y016265D01*
X012964Y016146D02*
X011189Y016146D01*
X011094Y016028D02*
X011468Y016028D01*
X011309Y015909D02*
X011253Y015909D01*
X011882Y016028D02*
X012255Y016028D01*
X012097Y015909D02*
X012040Y015909D01*
X012669Y016028D02*
X012964Y016028D01*
X012964Y015909D02*
X012827Y015909D01*
X012904Y015791D02*
X012964Y015791D01*
X012964Y015672D02*
X012948Y015672D01*
X012948Y015554D02*
X012964Y015554D01*
X012964Y015435D02*
X012925Y015435D01*
X012964Y015317D02*
X012876Y015317D01*
X012964Y015198D02*
X012759Y015198D01*
X012870Y015080D02*
X012964Y015080D01*
X012964Y014961D02*
X012921Y014961D01*
X012948Y014843D02*
X012964Y014843D01*
X012964Y014724D02*
X012948Y014724D01*
X012964Y014606D02*
X012907Y014606D01*
X012964Y014487D02*
X012836Y014487D01*
X012964Y014369D02*
X012689Y014369D01*
X012964Y014250D02*
X003700Y014250D01*
X003700Y014132D02*
X012964Y014132D01*
X012964Y014013D02*
X012706Y014013D01*
X012891Y013895D02*
X012964Y013895D01*
X012525Y013525D02*
X011150Y013525D01*
X011025Y013650D01*
X010666Y013658D02*
X003700Y013658D01*
X003700Y013776D02*
X010689Y013776D01*
X010762Y013895D02*
X003700Y013895D01*
X003700Y014013D02*
X012344Y014013D01*
X012159Y013895D02*
X011288Y013895D01*
X010683Y013539D02*
X003700Y013539D01*
X003700Y013421D02*
X010747Y013421D01*
X010928Y013302D02*
X003700Y013302D01*
X003700Y013184D02*
X012131Y013184D01*
X012277Y013065D02*
X003700Y013065D01*
X003700Y012947D02*
X012211Y012947D01*
X012093Y012828D02*
X003700Y012828D01*
X003700Y012710D02*
X012039Y012710D01*
X012005Y012591D02*
X003700Y012591D01*
X003700Y012473D02*
X012005Y012473D01*
X012033Y012354D02*
X003700Y012354D01*
X003700Y012236D02*
X012082Y012236D01*
X012198Y012117D02*
X003700Y012117D01*
X003700Y011999D02*
X008866Y011999D01*
X009059Y011999D02*
X012309Y011999D01*
X012145Y011880D02*
X010503Y011880D01*
X010622Y011762D02*
X012060Y011762D01*
X012011Y011643D02*
X010740Y011643D01*
X010859Y011525D02*
X012005Y011525D01*
X012011Y011406D02*
X010977Y011406D01*
X011096Y011288D02*
X012061Y011288D01*
X012146Y011169D02*
X011214Y011169D01*
X011333Y011051D02*
X012312Y011051D01*
X012197Y010932D02*
X011451Y010932D01*
X011570Y010814D02*
X012082Y010814D01*
X012033Y010695D02*
X011688Y010695D01*
X011742Y010577D02*
X012005Y010577D01*
X012005Y010458D02*
X011742Y010458D01*
X011742Y010340D02*
X012039Y010340D01*
X012094Y010221D02*
X011742Y010221D01*
X011742Y010103D02*
X012212Y010103D01*
X012485Y009866D02*
X012565Y009866D01*
X012567Y009984D02*
X012964Y009984D01*
X012964Y009866D02*
X012835Y009866D01*
X012928Y009747D02*
X012964Y009747D01*
X012565Y009747D02*
X012485Y009747D01*
X012485Y009629D02*
X012565Y009629D01*
X012565Y009565D02*
X012485Y009565D01*
X012485Y009485D01*
X012066Y009485D01*
X012085Y009392D02*
X011742Y009392D01*
X011742Y009510D02*
X012485Y009510D01*
X012565Y009565D02*
X012565Y009984D01*
X012838Y010103D02*
X012964Y010103D01*
X012956Y010221D02*
X012964Y010221D01*
X012565Y009392D02*
X012485Y009392D01*
X012485Y009273D02*
X012565Y009273D01*
X012565Y009155D02*
X012485Y009155D01*
X012252Y009155D02*
X011742Y009155D01*
X011742Y009273D02*
X012139Y009273D01*
X011742Y009036D02*
X012964Y009036D01*
X012964Y008918D02*
X012767Y008918D01*
X012895Y008799D02*
X012964Y008799D01*
X012958Y008681D02*
X012964Y008681D01*
X012565Y008681D02*
X012485Y008681D01*
X012485Y008799D02*
X012565Y008799D01*
X012565Y008918D02*
X012485Y008918D01*
X012283Y008918D02*
X011742Y008918D01*
X011742Y008799D02*
X012155Y008799D01*
X012092Y008681D02*
X011742Y008681D01*
X011742Y008562D02*
X012485Y008562D01*
X012072Y008444D02*
X011742Y008444D01*
X011742Y008325D02*
X012111Y008325D01*
X012193Y008207D02*
X011742Y008207D01*
X011742Y008088D02*
X012381Y008088D01*
X012416Y007970D02*
X011742Y007970D01*
X011742Y007851D02*
X012416Y007851D01*
X012456Y007733D02*
X011742Y007733D01*
X011742Y007614D02*
X012495Y007614D01*
X012495Y007496D02*
X011742Y007496D01*
X011743Y007377D02*
X012495Y007377D01*
X012495Y007259D02*
X011806Y007259D01*
X011821Y007140D02*
X012494Y007140D01*
X012775Y007025D02*
X012588Y006838D01*
X005150Y006838D01*
X004713Y006400D01*
X004862Y006074D02*
X012964Y006074D01*
X012964Y006192D02*
X005012Y006192D01*
X005064Y006311D02*
X012964Y006311D01*
X012964Y006429D02*
X005137Y006429D01*
X005256Y006548D02*
X012964Y006548D01*
X012964Y006666D02*
X012812Y006666D01*
X012930Y006785D02*
X012964Y006785D01*
X012775Y007025D02*
X012775Y007900D01*
X011463Y007150D02*
X011463Y010525D01*
X010338Y011650D01*
X008963Y011650D01*
X008620Y011762D02*
X003700Y011762D01*
X003700Y011880D02*
X008685Y011880D01*
X008513Y011643D02*
X003700Y011643D01*
X003700Y011525D02*
X008402Y011525D01*
X008354Y011406D02*
X003700Y011406D01*
X003700Y011288D02*
X008354Y011288D01*
X008394Y011169D02*
X003700Y011169D01*
X003700Y011051D02*
X008492Y011051D01*
X008438Y010695D02*
X003700Y010695D01*
X003700Y010577D02*
X005222Y010577D01*
X005297Y010607D02*
X005105Y010528D01*
X004959Y010382D01*
X004880Y010191D01*
X004880Y009984D01*
X003700Y009984D01*
X003700Y009866D02*
X004929Y009866D01*
X004959Y009793D02*
X004880Y009984D01*
X004880Y010103D02*
X003700Y010103D01*
X003700Y010221D02*
X004892Y010221D01*
X004942Y010340D02*
X003700Y010340D01*
X003700Y010458D02*
X005035Y010458D01*
X005297Y010607D02*
X005503Y010607D01*
X005695Y010528D01*
X005841Y010382D01*
X005880Y010287D01*
X005880Y010303D01*
X006185Y010607D01*
X006615Y010607D01*
X006920Y010303D01*
X006920Y009872D01*
X006915Y009867D01*
X007018Y009867D01*
X007121Y009825D01*
X007187Y009759D01*
X007221Y009759D01*
X007353Y009704D01*
X007454Y009603D01*
X007506Y009479D01*
X007579Y009509D01*
X007721Y009509D01*
X007853Y009454D01*
X007954Y009353D01*
X008009Y009221D01*
X008009Y009079D01*
X007954Y008947D01*
X007853Y008846D01*
X007721Y008791D01*
X007687Y008791D01*
X007246Y008350D01*
X007143Y008308D01*
X006831Y008308D01*
X006860Y008278D01*
X006860Y008128D01*
X006440Y008128D01*
X006440Y008047D01*
X006440Y007628D01*
X006591Y007628D01*
X006860Y007897D01*
X006860Y008047D01*
X006440Y008047D01*
X006360Y008047D01*
X006360Y007628D01*
X006209Y007628D01*
X005940Y007897D01*
X005940Y008047D01*
X006360Y008047D01*
X006360Y008128D01*
X005940Y008128D01*
X005940Y008232D01*
X005920Y008212D01*
X005920Y007872D01*
X005615Y007568D01*
X005185Y007568D01*
X004880Y007872D01*
X004880Y008303D01*
X005165Y008588D01*
X004880Y008872D01*
X004880Y009303D01*
X005185Y009607D01*
X005200Y009607D01*
X005105Y009647D01*
X004959Y009793D01*
X005005Y009747D02*
X003700Y009747D01*
X003700Y009629D02*
X005149Y009629D01*
X005087Y009510D02*
X003700Y009510D01*
X003700Y009392D02*
X004969Y009392D01*
X004880Y009273D02*
X003700Y009273D01*
X003700Y009155D02*
X004880Y009155D01*
X004880Y009036D02*
X003700Y009036D01*
X003700Y008918D02*
X004880Y008918D01*
X004953Y008799D02*
X003700Y008799D01*
X003700Y008681D02*
X005072Y008681D01*
X005139Y008562D02*
X003700Y008562D01*
X003700Y008444D02*
X005021Y008444D01*
X004902Y008325D02*
X003700Y008325D01*
X003700Y008207D02*
X004880Y008207D01*
X004880Y008088D02*
X003700Y008088D01*
X003700Y007970D02*
X004880Y007970D01*
X004901Y007851D02*
X003700Y007851D01*
X003700Y007733D02*
X005020Y007733D01*
X005138Y007614D02*
X003700Y007614D01*
X003700Y007496D02*
X008058Y007496D01*
X008058Y007614D02*
X005662Y007614D01*
X005780Y007733D02*
X006104Y007733D01*
X005986Y007851D02*
X005899Y007851D01*
X005920Y007970D02*
X005940Y007970D01*
X005920Y008088D02*
X006360Y008088D01*
X006440Y008088D02*
X008058Y008088D01*
X008058Y007970D02*
X006860Y007970D01*
X006814Y007851D02*
X008058Y007851D01*
X008058Y007733D02*
X006696Y007733D01*
X006440Y007733D02*
X006360Y007733D01*
X006360Y007851D02*
X006440Y007851D01*
X006440Y007970D02*
X006360Y007970D01*
X005940Y008207D02*
X005920Y008207D01*
X005900Y008588D02*
X007088Y008588D01*
X007650Y009150D01*
X008009Y009155D02*
X008058Y009155D01*
X008058Y009273D02*
X007987Y009273D01*
X007916Y009392D02*
X008058Y009392D01*
X008058Y009510D02*
X007493Y009510D01*
X007429Y009629D02*
X008058Y009629D01*
X008058Y009747D02*
X007250Y009747D01*
X007023Y009866D02*
X008058Y009866D01*
X008058Y009984D02*
X006920Y009984D01*
X006920Y010103D02*
X008058Y010103D01*
X008090Y010221D02*
X006920Y010221D01*
X006883Y010340D02*
X008194Y010340D01*
X008291Y010458D02*
X006765Y010458D01*
X006646Y010577D02*
X008335Y010577D01*
X008650Y010400D02*
X008338Y010088D01*
X008338Y007150D01*
X008696Y007140D02*
X010291Y007140D01*
X010307Y007259D02*
X008681Y007259D01*
X008618Y007377D02*
X010370Y007377D01*
X010547Y007496D02*
X008617Y007496D01*
X008617Y007614D02*
X010620Y007614D01*
X010620Y007733D02*
X008617Y007733D01*
X008617Y007851D02*
X010620Y007851D01*
X010620Y007970D02*
X008617Y007970D01*
X008617Y008088D02*
X010620Y008088D01*
X010620Y008207D02*
X008617Y008207D01*
X008617Y008325D02*
X010620Y008325D01*
X010620Y008444D02*
X008617Y008444D01*
X008617Y008562D02*
X010620Y008562D01*
X010620Y008681D02*
X008617Y008681D01*
X008617Y008799D02*
X010620Y008799D01*
X010620Y008918D02*
X008617Y008918D01*
X008617Y009036D02*
X010620Y009036D01*
X010620Y009155D02*
X008617Y009155D01*
X008617Y009273D02*
X010620Y009273D01*
X010620Y009392D02*
X008617Y009392D01*
X008617Y009510D02*
X010620Y009510D01*
X010620Y009629D02*
X008617Y009629D01*
X008617Y009747D02*
X010620Y009747D01*
X010620Y009866D02*
X008617Y009866D01*
X008630Y009984D02*
X010620Y009984D01*
X010620Y010103D02*
X009985Y010103D01*
X009775Y010400D02*
X010525Y010400D01*
X010588Y010463D01*
X010313Y010695D02*
X009987Y010695D01*
X010285Y010932D02*
X003700Y010932D01*
X003700Y010814D02*
X010403Y010814D01*
X010166Y011051D02*
X008933Y011051D01*
X008713Y011338D02*
X010275Y011338D01*
X010900Y010713D01*
X010900Y007400D01*
X010650Y007150D01*
X008057Y007377D02*
X003700Y007377D01*
X003700Y007259D02*
X007994Y007259D01*
X007979Y007140D02*
X003700Y007140D01*
X003700Y007022D02*
X004938Y007022D01*
X004820Y006903D02*
X003700Y006903D01*
X003700Y006785D02*
X004701Y006785D01*
X004471Y006666D02*
X003700Y006666D01*
X003700Y006548D02*
X004385Y006548D01*
X004354Y006429D02*
X003700Y006429D01*
X003700Y006311D02*
X004361Y006311D01*
X004413Y006192D02*
X003700Y006192D01*
X003700Y006074D02*
X004563Y006074D01*
X003700Y005955D02*
X012964Y005955D01*
X012964Y005837D02*
X003700Y005837D01*
X003700Y005718D02*
X012964Y005718D01*
X012964Y005600D02*
X003700Y005600D01*
X003700Y005481D02*
X012964Y005481D01*
X012964Y005363D02*
X003700Y005363D01*
X003700Y005244D02*
X012964Y005244D01*
X012964Y005126D02*
X003700Y005126D01*
X003700Y005007D02*
X012964Y005007D01*
X012964Y004889D02*
X003700Y004889D01*
X003700Y004770D02*
X012964Y004770D01*
X012964Y004652D02*
X003700Y004652D01*
X003700Y004533D02*
X012964Y004533D01*
X012964Y004415D02*
X003700Y004415D01*
X003700Y004296D02*
X012964Y004296D01*
X012964Y004178D02*
X006965Y004178D01*
X006943Y004199D02*
X006850Y004238D01*
X006748Y004238D01*
X006654Y004199D01*
X006583Y004128D01*
X006544Y004034D01*
X006544Y003915D01*
X006525Y003923D01*
X006423Y003923D01*
X006330Y003884D01*
X006264Y003818D01*
X006198Y003884D01*
X006105Y003923D01*
X006003Y003923D01*
X005909Y003884D01*
X005838Y003812D01*
X005799Y003719D01*
X005799Y003617D01*
X005838Y003523D01*
X005903Y003458D01*
X005838Y003392D01*
X005799Y003298D01*
X005799Y003197D01*
X005838Y003103D01*
X005909Y003031D01*
X006003Y002993D01*
X005026Y002993D01*
X005119Y003031D01*
X005191Y003103D01*
X005401Y003313D01*
X005440Y003407D01*
X005440Y003929D01*
X005401Y004022D01*
X005330Y004094D01*
X005236Y004133D01*
X005134Y004133D01*
X005041Y004094D01*
X004975Y004028D01*
X004909Y004094D01*
X004815Y004133D01*
X004714Y004133D01*
X004620Y004094D01*
X004549Y004022D01*
X004517Y003947D01*
X004370Y004094D01*
X004276Y004133D01*
X004175Y004133D01*
X004081Y004094D01*
X004009Y004022D01*
X003970Y003929D01*
X003970Y003773D01*
X003904Y003707D01*
X003865Y003613D01*
X003865Y003512D01*
X003904Y003418D01*
X003970Y003352D01*
X003970Y003197D01*
X004009Y003103D01*
X004081Y003031D01*
X004175Y002993D01*
X004276Y002993D01*
X004924Y002993D01*
X005026Y002993D01*
X004924Y002993D02*
X004830Y003031D01*
X004620Y003242D01*
X004554Y003308D01*
X004480Y003308D01*
X004480Y003197D01*
X004441Y003103D01*
X004370Y003031D01*
X004276Y002993D01*
X004175Y002993D02*
X003700Y002993D01*
X003700Y003111D02*
X004006Y003111D01*
X003970Y003230D02*
X003700Y003230D01*
X003700Y003348D02*
X003970Y003348D01*
X003884Y003467D02*
X003700Y003467D01*
X003700Y003585D02*
X003865Y003585D01*
X003902Y003704D02*
X003700Y003704D01*
X003700Y003822D02*
X003970Y003822D01*
X003975Y003941D02*
X003700Y003941D01*
X003700Y004059D02*
X004046Y004059D01*
X004405Y004059D02*
X004585Y004059D01*
X004944Y004059D02*
X005005Y004059D01*
X005365Y004059D02*
X006554Y004059D01*
X006544Y003941D02*
X005435Y003941D01*
X005440Y003822D02*
X005847Y003822D01*
X005799Y003704D02*
X005440Y003704D01*
X005440Y003585D02*
X005812Y003585D01*
X005895Y003467D02*
X005440Y003467D01*
X005416Y003348D02*
X005819Y003348D01*
X005799Y003230D02*
X005318Y003230D01*
X005199Y003111D02*
X005834Y003111D01*
X006003Y002993D02*
X006105Y002993D01*
X006423Y002993D01*
X006525Y002993D01*
X006643Y002993D01*
X006955Y002993D01*
X007178Y002993D01*
X007279Y002993D01*
X008152Y002993D01*
X008253Y002993D01*
X008572Y002993D01*
X008673Y002993D01*
X008767Y003031D01*
X008787Y003052D01*
X008808Y003031D01*
X008901Y002993D01*
X008673Y002993D01*
X008572Y002993D02*
X008478Y003031D01*
X008413Y003097D01*
X008347Y003031D01*
X008253Y002993D01*
X008152Y002993D02*
X008058Y003031D01*
X007986Y003103D01*
X007947Y003197D01*
X007947Y003929D01*
X007986Y004022D01*
X008058Y004094D01*
X008152Y004133D01*
X008253Y004133D01*
X008347Y004094D01*
X008413Y004028D01*
X008478Y004094D01*
X008572Y004133D01*
X008673Y004133D01*
X008767Y004094D01*
X008787Y004074D01*
X008808Y004094D01*
X008901Y004133D01*
X009213Y004133D01*
X009307Y004094D01*
X009379Y004021D01*
X009380Y004022D01*
X009452Y004094D01*
X009546Y004133D01*
X009963Y004133D01*
X010056Y004094D01*
X010076Y004074D01*
X010097Y004094D01*
X010190Y004133D01*
X010502Y004133D01*
X010596Y004094D01*
X010616Y004074D01*
X010636Y004094D01*
X010730Y004133D01*
X010831Y004133D01*
X010925Y004094D01*
X010991Y004028D01*
X011056Y004094D01*
X011150Y004133D01*
X011252Y004133D01*
X011345Y004094D01*
X011366Y004074D01*
X011386Y004094D01*
X011479Y004133D01*
X011896Y004133D01*
X011990Y004094D01*
X012010Y004074D01*
X012030Y004094D01*
X012124Y004133D01*
X012541Y004133D01*
X012634Y004094D01*
X012706Y004022D01*
X012745Y003929D01*
X012745Y003197D01*
X012706Y003103D01*
X012634Y003031D01*
X012541Y002993D01*
X012964Y002993D01*
X012964Y003111D02*
X012709Y003111D01*
X012745Y003230D02*
X012964Y003230D01*
X012964Y003348D02*
X012745Y003348D01*
X012745Y003467D02*
X012964Y003467D01*
X012964Y003585D02*
X012745Y003585D01*
X012745Y003704D02*
X012964Y003704D01*
X012964Y003822D02*
X012745Y003822D01*
X012740Y003941D02*
X012964Y003941D01*
X012964Y004059D02*
X012670Y004059D01*
X012124Y003203D02*
X012100Y003212D01*
X012100Y003197D01*
X012062Y003103D01*
X011990Y003031D01*
X011896Y002993D01*
X012439Y002993D01*
X012541Y002993D01*
X012439Y002993D02*
X012346Y003031D01*
X012274Y003103D01*
X012235Y003197D01*
X012235Y003203D01*
X012124Y003203D01*
X012065Y003111D02*
X012271Y003111D01*
X011896Y002993D02*
X011795Y002993D01*
X011701Y003031D01*
X011629Y003103D01*
X011590Y003197D01*
X011590Y003203D01*
X011479Y003203D01*
X011456Y003212D01*
X011456Y003197D01*
X011417Y003103D01*
X011345Y003031D01*
X011252Y002993D01*
X011795Y002993D01*
X011626Y003111D02*
X011420Y003111D01*
X011252Y002993D02*
X011150Y002993D01*
X010831Y002993D01*
X010925Y003031D01*
X010991Y003097D01*
X011056Y003031D01*
X011150Y002993D01*
X010831Y002993D02*
X010730Y002993D01*
X010607Y002993D01*
X010668Y003018D01*
X010730Y002993D01*
X010607Y002993D02*
X010085Y002993D01*
X009963Y002993D01*
X010024Y003018D01*
X010085Y002993D01*
X009963Y002993D02*
X009546Y002993D01*
X009452Y003031D01*
X009379Y003104D01*
X009307Y003031D01*
X009213Y002993D01*
X009546Y002993D01*
X009213Y002993D02*
X008901Y002993D01*
X007983Y003111D02*
X007448Y003111D01*
X007445Y003103D02*
X007484Y003197D01*
X007484Y003352D01*
X007550Y003418D01*
X007589Y003512D01*
X007589Y003613D01*
X007550Y003707D01*
X007484Y003773D01*
X007484Y003824D01*
X007445Y003917D01*
X007268Y004094D01*
X007174Y004133D01*
X007073Y004133D01*
X007022Y004112D01*
X007015Y004128D01*
X006943Y004199D01*
X006633Y004178D02*
X003700Y004178D01*
X004480Y003230D02*
X004632Y003230D01*
X004751Y003111D02*
X004445Y003111D01*
X003700Y002874D02*
X012964Y002874D01*
X012964Y002756D02*
X003700Y002756D01*
X006105Y002993D02*
X006198Y003031D01*
X006264Y003097D01*
X006330Y003031D01*
X006423Y002993D01*
X006525Y002993D02*
X006584Y003017D01*
X006643Y002993D01*
X006955Y002993D02*
X007048Y003031D01*
X007066Y003049D01*
X007084Y003031D01*
X007178Y002993D01*
X007279Y002993D02*
X007373Y003031D01*
X007445Y003103D01*
X007484Y003230D02*
X007947Y003230D01*
X007947Y003348D02*
X007484Y003348D01*
X007570Y003467D02*
X007947Y003467D01*
X007947Y003585D02*
X007589Y003585D01*
X007551Y003704D02*
X007947Y003704D01*
X007947Y003822D02*
X007484Y003822D01*
X007422Y003941D02*
X007952Y003941D01*
X008023Y004059D02*
X007303Y004059D01*
X006268Y003822D02*
X006260Y003822D01*
X008382Y004059D02*
X008443Y004059D01*
X009342Y004059D02*
X009417Y004059D01*
X010960Y004059D02*
X011021Y004059D01*
X005900Y008588D02*
X005400Y008088D01*
X006860Y008207D02*
X008058Y008207D01*
X008058Y008325D02*
X007185Y008325D01*
X007339Y008444D02*
X008058Y008444D01*
X008058Y008562D02*
X007458Y008562D01*
X007576Y008681D02*
X008058Y008681D01*
X008058Y008799D02*
X007740Y008799D01*
X007925Y008918D02*
X008058Y008918D01*
X008058Y009036D02*
X007991Y009036D01*
X007150Y009400D02*
X006963Y009588D01*
X005900Y009588D01*
X005400Y010088D01*
X005765Y010458D02*
X006035Y010458D01*
X005917Y010340D02*
X005858Y010340D01*
X005578Y010577D02*
X006154Y010577D01*
X008862Y010695D02*
X009563Y010695D01*
X009460Y010577D02*
X008965Y010577D01*
X009009Y010458D02*
X009416Y010458D01*
X009416Y010340D02*
X009009Y010340D01*
X008964Y010221D02*
X009461Y010221D01*
X009565Y010103D02*
X008860Y010103D01*
X012798Y009155D02*
X012964Y009155D01*
X012964Y009273D02*
X012911Y009273D01*
X012235Y014369D02*
X011902Y014369D01*
X012048Y014487D02*
X012088Y014487D01*
X011447Y014369D02*
X011115Y014369D01*
X011261Y014487D02*
X011301Y014487D01*
X010660Y014369D02*
X010327Y014369D01*
X010474Y014487D02*
X010513Y014487D01*
X009872Y014369D02*
X009540Y014369D01*
X009686Y014487D02*
X009726Y014487D01*
X009085Y014369D02*
X008752Y014369D01*
X008899Y014487D02*
X008939Y014487D01*
X008298Y014369D02*
X003700Y014369D01*
X003700Y014487D02*
X008151Y014487D01*
X008080Y014606D02*
X003700Y014606D01*
X003700Y014724D02*
X008039Y014724D01*
X008039Y014843D02*
X003700Y014843D01*
X003700Y014961D02*
X008066Y014961D01*
X008117Y015080D02*
X003700Y015080D01*
X003700Y015198D02*
X008236Y015198D01*
X008196Y015317D02*
X003700Y015317D01*
X003700Y015435D02*
X008127Y015435D01*
X008099Y015554D02*
X003700Y015554D01*
X003700Y015672D02*
X008107Y015672D01*
X008151Y015791D02*
X003700Y015791D01*
X003700Y015909D02*
X006806Y015909D01*
X006647Y016028D02*
X003700Y016028D01*
X003700Y016146D02*
X006585Y016146D01*
X006564Y016265D02*
X003700Y016265D01*
X003700Y016383D02*
X006576Y016383D01*
X006626Y016502D02*
X003700Y016502D01*
X003700Y016620D02*
X006663Y016620D01*
X006663Y016739D02*
X003700Y016739D01*
X003700Y016857D02*
X006698Y016857D01*
X007299Y016502D02*
X008073Y016502D01*
X008060Y016383D02*
X007349Y016383D01*
X007361Y016265D02*
X008071Y016265D01*
X008120Y016146D02*
X007340Y016146D01*
X007278Y016028D02*
X008225Y016028D01*
X008244Y015909D02*
X007119Y015909D01*
X008973Y016363D02*
X009285Y016363D01*
X009285Y016400D01*
X008973Y016400D01*
X008973Y016363D01*
X008973Y016383D02*
X009285Y016383D01*
X009285Y016400D02*
X009285Y016538D01*
X009323Y016538D01*
X009323Y016400D01*
X009635Y016400D01*
X009635Y016363D01*
X009323Y016363D01*
X009323Y016400D01*
X009285Y016400D01*
X009285Y016363D02*
X009285Y016073D01*
X009323Y016073D01*
X009323Y016363D01*
X009285Y016363D01*
X009323Y016383D02*
X009635Y016383D01*
X009323Y016265D02*
X009285Y016265D01*
X009285Y016146D02*
X009323Y016146D01*
X009323Y016502D02*
X009285Y016502D01*
D18*
X009304Y016381D02*
X008525Y015602D01*
X008525Y015588D01*
X006963Y016275D02*
X006963Y016713D01*
X007088Y016838D01*
X010713Y016838D01*
X010838Y016713D01*
X010838Y016338D01*
D19*
X011025Y013650D03*
X010088Y013525D03*
X008963Y011650D03*
X008713Y011338D03*
X008650Y010400D03*
X009775Y010400D03*
X010588Y010463D03*
X007650Y009150D03*
X007150Y009400D03*
X006838Y011338D03*
X008338Y007150D03*
X009900Y006463D03*
X010650Y007150D03*
X011463Y007150D03*
X012775Y007900D03*
X004713Y006400D03*
M02*
