%
M48
M72
T01C0.0236
T02C0.0315
T03C0.0354
T04C0.0360
T05C0.0400
%
T01
X5400Y4438
X10400Y8563
X11338Y8625
X11713Y9063
X12525Y7688
X8713Y11313
X7213Y11625
X7088Y12375
X8150Y12688
X10088Y14344
X8150Y14438
X10838Y16875
X12619Y17000
X3900Y9625
T02
X8517Y16919
X9304Y16919
X10091Y16919
T03
X10100Y16125
X10887Y16125
X11675Y16125
X12462Y16125
X12462Y15338
X11675Y15338
X10887Y15338
X10100Y15338
X9312Y15338
X8525Y15338
X8525Y16125
X9312Y16125
T04
X10150Y11750
X7275Y10625
X8025Y9000
X8025Y7625
X9588Y7625
X7088Y6125
T05
X8025Y4500
X9025Y4500
X10025Y4500
X12525Y9063
X12525Y10063
X12525Y11063
X12525Y12063
X12525Y13063
X12525Y14063
M30
