G75*
%MOIN*%
%OFA0B0*%
%FSLAX24Y24*%
%IPPOS*%
%LPD*%
%AMOC8*
5,1,8,0,0,1.08239X$1,22.5*
%
%ADD10C,0.0080*%
%ADD11C,0.0050*%
%ADD12C,0.0030*%
D10*
X003400Y002938D02*
X013264Y002938D01*
X013264Y017732D01*
X003400Y017732D01*
X003400Y002938D01*
X012025Y008813D02*
X012275Y008563D01*
X012775Y008563D01*
X013025Y008813D01*
X013025Y009313D01*
X012775Y009563D01*
X013025Y009813D01*
X013025Y010313D01*
X012775Y010563D01*
X013025Y010813D01*
X013025Y011313D01*
X012775Y011563D01*
X013025Y011813D01*
X013025Y012313D01*
X012775Y012563D01*
X013025Y012813D01*
X013025Y013313D01*
X012775Y013563D01*
X013025Y013813D01*
X013025Y014313D01*
X012775Y014563D01*
X012275Y014563D01*
X012025Y014313D01*
X012025Y013813D01*
X012275Y013563D01*
X012025Y013313D01*
X012025Y012813D01*
X012275Y012563D01*
X012025Y012313D01*
X012025Y011813D01*
X012275Y011563D01*
X012025Y011313D01*
X012025Y010813D01*
X012275Y010563D01*
X012025Y010313D01*
X012025Y009813D01*
X012275Y009563D01*
X012025Y009313D01*
X012025Y008813D01*
D11*
X010879Y008848D02*
X004973Y008848D01*
X004973Y017509D01*
X010879Y017509D01*
X010879Y008848D01*
X011405Y013236D02*
X011330Y013311D01*
X011330Y013386D01*
X011405Y013462D01*
X011780Y013462D01*
X011780Y013537D02*
X011780Y013386D01*
X011780Y013697D02*
X011330Y013697D01*
X011480Y013697D02*
X011480Y013922D01*
X011555Y013997D01*
X011705Y013997D01*
X011780Y013922D01*
X011780Y013697D01*
X011630Y014157D02*
X011780Y014307D01*
X011330Y014307D01*
X011330Y014157D02*
X011330Y014457D01*
X013131Y016912D02*
X013131Y003172D01*
X004076Y003172D01*
X004076Y016912D01*
X013131Y016912D01*
D12*
X010274Y016160D02*
X010212Y016222D01*
X010150Y016222D01*
X010088Y016160D01*
X010027Y016222D01*
X009965Y016222D01*
X009903Y016160D01*
X009903Y016037D01*
X009965Y015975D01*
X010027Y015853D02*
X010274Y015853D01*
X010212Y015975D02*
X010274Y016037D01*
X010274Y016160D01*
X010088Y016160D02*
X010088Y016098D01*
X010027Y015853D02*
X009903Y015730D01*
X010027Y015607D01*
X010274Y015607D01*
X010212Y015485D02*
X010150Y015485D01*
X010088Y015423D01*
X010027Y015485D01*
X009965Y015485D01*
X009903Y015423D01*
X009903Y015300D01*
X009965Y015238D01*
X010088Y015362D02*
X010088Y015423D01*
X010212Y015485D02*
X010274Y015423D01*
X010274Y015300D01*
X010212Y015238D01*
X009486Y015300D02*
X009424Y015238D01*
X009178Y015238D01*
X009116Y015300D01*
X009116Y015423D01*
X009178Y015485D01*
X009301Y015485D01*
X009301Y015362D01*
X009424Y015485D02*
X009486Y015423D01*
X009486Y015300D01*
X009486Y015607D02*
X009116Y015853D01*
X009486Y015853D01*
X009486Y015975D02*
X009486Y016160D01*
X009424Y016222D01*
X009178Y016222D01*
X009116Y016160D01*
X009116Y015975D01*
X009486Y015975D01*
X009486Y015607D02*
X009116Y015607D01*
X008699Y015607D02*
X008699Y015792D01*
X008637Y015853D01*
X008514Y015853D01*
X008452Y015792D01*
X008452Y015607D01*
X008452Y015730D02*
X008328Y015853D01*
X008328Y015975D02*
X008699Y016222D01*
X008699Y015975D02*
X008328Y016222D01*
X008328Y015607D02*
X008699Y015607D01*
M02*
