G75*
%MOIN*%
%OFA0B0*%
%FSLAX24Y24*%
%IPPOS*%
%LPD*%
%AMOC8*
5,1,8,0,0,1.08239X$1,22.5*
%
%ADD10C,0.0080*%
%ADD11R,0.0512X0.0591*%
%ADD12R,0.0276X0.0669*%
%ADD13R,0.0220X0.0500*%
%ADD14R,0.0500X0.0220*%
%ADD15C,0.0600*%
%ADD16R,0.0551X0.0709*%
%ADD17R,0.0984X0.0551*%
%ADD18R,0.1181X0.0551*%
%ADD19R,0.0591X0.0591*%
%ADD20R,0.0591X0.0512*%
%ADD21R,0.1024X0.0866*%
%ADD22R,0.0551X0.0394*%
%ADD23R,0.1000X0.2000*%
%ADD24R,0.0880X0.0480*%
%ADD25R,0.0866X0.1417*%
%ADD26C,0.0472*%
%ADD27OC8,0.0630*%
%ADD28C,0.0531*%
%ADD29C,0.0600*%
D10*
X003400Y002938D02*
X013264Y002938D01*
X013264Y017732D01*
X003400Y017732D01*
X003400Y002938D01*
D11*
X009088Y008563D03*
X009837Y008563D03*
X005024Y011188D03*
X004276Y011188D03*
X006256Y013500D03*
X007004Y013500D03*
X007079Y014356D03*
X006331Y014356D03*
X010526Y013813D03*
X011274Y013813D03*
X011403Y016893D03*
X012151Y016893D03*
D12*
X009647Y013813D03*
X009175Y013813D03*
X008703Y013813D03*
D13*
X008673Y012753D03*
X008988Y012753D03*
X009303Y012753D03*
X009618Y012753D03*
X009932Y012753D03*
X010247Y012753D03*
X010562Y012753D03*
X010877Y012753D03*
X010877Y009373D03*
X010562Y009373D03*
X010247Y009373D03*
X009932Y009373D03*
X009618Y009373D03*
X009303Y009373D03*
X008988Y009373D03*
X008673Y009373D03*
D14*
X008085Y009960D03*
X008085Y010275D03*
X008085Y010590D03*
X008085Y010905D03*
X008085Y011220D03*
X008085Y011535D03*
X008085Y011850D03*
X008085Y012165D03*
X011465Y012165D03*
X011465Y011850D03*
X011465Y011535D03*
X011465Y011220D03*
X011465Y010905D03*
X011465Y010590D03*
X011465Y010275D03*
X011465Y009960D03*
D15*
X012525Y010063D03*
X012525Y011063D03*
X012525Y012063D03*
X012525Y013063D03*
X012525Y014063D03*
X012525Y009063D03*
D16*
X005581Y006050D03*
X004243Y006050D03*
D17*
X004246Y015427D03*
X004246Y017198D03*
X007554Y017198D03*
X007554Y015427D03*
D18*
X004246Y016313D03*
D19*
X004059Y014331D03*
X004097Y013475D03*
X005437Y014331D03*
X005475Y013475D03*
D20*
X008775Y006562D03*
X009588Y006562D03*
X010400Y006562D03*
X011150Y006562D03*
X011900Y006562D03*
X011900Y005813D03*
X011150Y005813D03*
X010400Y005813D03*
X009588Y005813D03*
X008775Y005813D03*
D21*
X006353Y007162D03*
X004384Y007162D03*
X004260Y012138D03*
X006229Y012138D03*
D22*
X011833Y008062D03*
X010967Y007688D03*
X011833Y007313D03*
D23*
X011900Y004438D03*
X006400Y004438D03*
X004400Y004438D03*
D24*
X004680Y008384D03*
X004680Y009294D03*
X004680Y010204D03*
D25*
X007120Y009294D03*
D26*
X008517Y016919D03*
X009304Y016919D03*
X010091Y016919D03*
D27*
X010150Y011750D03*
X007275Y010625D03*
X008025Y009000D03*
X008025Y007625D03*
X009588Y007625D03*
X007088Y006125D03*
D28*
X008525Y015338D03*
X009312Y015338D03*
X010100Y015338D03*
X010887Y015338D03*
X011675Y015338D03*
X012462Y015338D03*
X012462Y016125D03*
X011675Y016125D03*
X010887Y016125D03*
X010100Y016125D03*
X009312Y016125D03*
X008525Y016125D03*
D29*
X008025Y004800D02*
X008025Y004200D01*
X009025Y004200D02*
X009025Y004800D01*
X010025Y004800D02*
X010025Y004200D01*
M02*
