%
M48
M72
T01C0.0315
T02C0.0320
T03C0.0354
%
T01
X4275Y4150
X4275Y5150
X4275Y6150
X4275Y7150
X5275Y7650
X4275Y8150
X5275Y8650
X4275Y9150
X4275Y10150
X4275Y11150
X4275Y12150
X4275Y13150
X4275Y14150
X4275Y15150
X10275Y15150
X10275Y14150
X10275Y13150
X10275Y12150
X10275Y11150
X10275Y10150
X10275Y9150
X10275Y8150
X10275Y7150
X10275Y6150
X10275Y5150
X10275Y4150
X17325Y16400
X18112Y16400
X18900Y16400
T02
X18150Y17650
X17150Y17650
X13151Y17278
X11775Y17283
X11775Y18283
X13151Y18278
X7838Y16150
X7521Y17151
X7521Y18151
X4838Y16150
X12088Y13525
X13088Y13525
X12588Y12775
X12650Y11650
X11650Y11650
X13650Y11650
X13650Y9650
X12650Y9650
X11650Y9650
X11650Y7900
X12650Y7900
X13650Y7900
X13650Y5900
X12650Y5900
X11650Y5900
T03
X14963Y14863
X15750Y14863
X16538Y14863
X17325Y14863
X18113Y14863
X18900Y14863
X18900Y15650
X18113Y15650
X17325Y15650
X16538Y15650
X15750Y15650
X14963Y15650
M30
