G75*
%MOIN*%
%OFA0B0*%
%FSLAX24Y24*%
%IPPOS*%
%LPD*%
%AMOC8*
5,1,8,0,0,1.08239X$1,22.5*
%
%ADD10C,0.0080*%
%ADD11OC8,0.0480*%
%ADD12C,0.0480*%
%ADD13R,0.1000X0.2000*%
%ADD14R,0.0480X0.0880*%
%ADD15R,0.1417X0.0866*%
%ADD16C,0.0472*%
%ADD17C,0.0480*%
%ADD18C,0.0531*%
D10*
X003400Y002400D02*
X023701Y002400D01*
X023701Y019382D01*
X003400Y019382D01*
X003400Y002400D01*
D11*
X011650Y005900D03*
X012650Y005900D03*
X013650Y005900D03*
X013650Y007900D03*
X012650Y007900D03*
X011650Y007900D03*
X011650Y009650D03*
X012650Y009650D03*
X013650Y009650D03*
X013650Y011650D03*
X012650Y011650D03*
X011650Y011650D03*
X012588Y012775D03*
X013088Y013525D03*
X012088Y013525D03*
X011775Y017283D03*
X011775Y018283D03*
X013151Y018278D03*
X017150Y017650D03*
X018150Y017650D03*
X007521Y018151D03*
D12*
X007521Y017151D03*
X013151Y017278D03*
D13*
X013400Y004150D03*
X011900Y004150D03*
X014900Y004150D03*
X016400Y004150D03*
X017900Y004150D03*
X008650Y004150D03*
X007150Y004150D03*
X005650Y004150D03*
D14*
X008884Y016243D03*
X009794Y016243D03*
X010704Y016243D03*
D15*
X009794Y018683D03*
D16*
X010275Y015150D03*
X010275Y014150D03*
X010275Y013150D03*
X010275Y012150D03*
X010275Y011150D03*
X010275Y010150D03*
X010275Y009150D03*
X010275Y008150D03*
X010275Y007150D03*
X010275Y006150D03*
X010275Y005150D03*
X010275Y004150D03*
X004275Y004150D03*
X004275Y005150D03*
X004275Y006150D03*
X004275Y007150D03*
X005275Y007650D03*
X004275Y008150D03*
X005275Y008650D03*
X004275Y009150D03*
X004275Y010150D03*
X004275Y011150D03*
X004275Y012150D03*
X004275Y013150D03*
X004275Y014150D03*
X004275Y015150D03*
X017325Y016400D03*
X018112Y016400D03*
X018900Y016400D03*
D17*
X008078Y016150D02*
X007598Y016150D01*
X005078Y016150D02*
X004598Y016150D01*
D18*
X014963Y015650D03*
X015750Y015650D03*
X016538Y015650D03*
X017325Y015650D03*
X018113Y015650D03*
X018900Y015650D03*
X018900Y014863D03*
X018113Y014863D03*
X017325Y014863D03*
X016538Y014863D03*
X015750Y014863D03*
X014963Y014863D03*
M02*
