G75*
%MOIN*%
%OFA0B0*%
%FSLAX24Y24*%
%IPPOS*%
%LPD*%
%AMOC8*
5,1,8,0,0,1.08239X$1,22.5*
%
%ADD10C,0.0080*%
%ADD11C,0.0040*%
D10*
X003400Y002400D02*
X023701Y002400D01*
X023701Y019382D01*
X003400Y019382D01*
X003400Y002400D01*
X008504Y016763D02*
X011084Y016763D01*
X011084Y018163D01*
X008504Y018163D01*
X008504Y016763D01*
D11*
X009387Y017253D02*
X009694Y017253D01*
X009540Y017253D02*
X009540Y017713D01*
X009694Y017559D01*
X009847Y017636D02*
X009924Y017713D01*
X010078Y017713D01*
X010154Y017636D01*
X010154Y017329D01*
X010078Y017253D01*
X009924Y017253D01*
X009847Y017329D01*
X010308Y017253D02*
X010461Y017253D01*
X010384Y017253D02*
X010384Y017713D01*
X010308Y017713D02*
X010461Y017713D01*
X009024Y018623D02*
X008837Y018623D01*
X008884Y018763D02*
X009024Y018623D01*
X008884Y018483D02*
X008884Y018763D01*
X009232Y016063D02*
X009185Y016016D01*
X009185Y015969D01*
X009232Y015923D01*
X009185Y015876D01*
X009185Y015829D01*
X009232Y015783D01*
X009325Y015783D01*
X009372Y015829D01*
X009278Y015923D02*
X009232Y015923D01*
X009232Y016063D02*
X009325Y016063D01*
X009372Y016016D01*
X010095Y016012D02*
X010142Y016059D01*
X010235Y016059D01*
X010282Y016012D01*
X010095Y016012D02*
X010095Y015966D01*
X010282Y015779D01*
X010095Y015779D01*
X010946Y015783D02*
X011133Y015783D01*
X011040Y015783D02*
X011040Y016063D01*
X011133Y015969D01*
X012587Y004874D02*
X012511Y004797D01*
X012511Y004644D01*
X012587Y004567D01*
X012587Y004413D02*
X012894Y004413D01*
X012971Y004337D01*
X012971Y004107D01*
X012511Y004107D01*
X012511Y004337D01*
X012587Y004413D01*
X012741Y004567D02*
X012817Y004720D01*
X012817Y004797D01*
X012741Y004874D01*
X012587Y004874D01*
X012741Y004567D02*
X012971Y004567D01*
X012971Y004874D01*
X014011Y004797D02*
X014011Y004644D01*
X014087Y004567D01*
X014241Y004567D01*
X014241Y004797D01*
X014164Y004874D01*
X014087Y004874D01*
X014011Y004797D01*
X014241Y004567D02*
X014394Y004720D01*
X014471Y004874D01*
X014394Y004413D02*
X014087Y004413D01*
X014011Y004337D01*
X014011Y004107D01*
X014471Y004107D01*
X014471Y004337D01*
X014394Y004413D01*
X014317Y003953D02*
X014011Y003953D01*
X014241Y003953D02*
X014241Y003646D01*
X014317Y003646D02*
X014471Y003800D01*
X014317Y003953D01*
X014317Y003646D02*
X014011Y003646D01*
X014241Y003493D02*
X014164Y003416D01*
X014164Y003186D01*
X014011Y003186D02*
X014471Y003186D01*
X014471Y003416D01*
X014394Y003493D01*
X014241Y003493D01*
X015448Y003521D02*
X015755Y003521D01*
X015908Y003675D01*
X015755Y003828D01*
X015448Y003828D01*
X015448Y003982D02*
X015448Y004212D01*
X015525Y004288D01*
X015832Y004288D01*
X015908Y004212D01*
X015908Y003982D01*
X015448Y003982D01*
X015678Y003828D02*
X015678Y003521D01*
X015678Y003368D02*
X015602Y003291D01*
X015602Y003061D01*
X015448Y003061D02*
X015908Y003061D01*
X015908Y003291D01*
X015832Y003368D01*
X015678Y003368D01*
X017011Y003186D02*
X017471Y003186D01*
X017471Y003416D01*
X017394Y003493D01*
X017241Y003493D01*
X017164Y003416D01*
X017164Y003186D01*
X017241Y003646D02*
X017241Y003953D01*
X017317Y003953D02*
X017011Y003953D01*
X017011Y004107D02*
X017011Y004337D01*
X017087Y004413D01*
X017394Y004413D01*
X017471Y004337D01*
X017471Y004107D01*
X017011Y004107D01*
X017317Y003953D02*
X017471Y003800D01*
X017317Y003646D01*
X017011Y003646D01*
X015908Y004519D02*
X015832Y004442D01*
X015908Y004519D02*
X015908Y004672D01*
X015832Y004749D01*
X015755Y004749D01*
X015448Y004442D01*
X015448Y004749D01*
X017011Y004567D02*
X017087Y004567D01*
X017394Y004874D01*
X017471Y004874D01*
X017471Y004567D01*
X018511Y004644D02*
X018587Y004567D01*
X018664Y004567D01*
X018741Y004644D01*
X018741Y004797D01*
X018664Y004874D01*
X018587Y004874D01*
X018511Y004797D01*
X018511Y004644D01*
X018741Y004644D02*
X018817Y004567D01*
X018894Y004567D01*
X018971Y004644D01*
X018971Y004797D01*
X018894Y004874D01*
X018817Y004874D01*
X018741Y004797D01*
X018894Y004413D02*
X018971Y004337D01*
X018971Y004107D01*
X018511Y004107D01*
X018511Y004337D01*
X018587Y004413D01*
X018894Y004413D01*
X018817Y003953D02*
X018511Y003953D01*
X018741Y003953D02*
X018741Y003646D01*
X018817Y003646D02*
X018971Y003800D01*
X018817Y003953D01*
X018817Y003646D02*
X018511Y003646D01*
X018741Y003493D02*
X018664Y003416D01*
X018664Y003186D01*
X018511Y003186D02*
X018971Y003186D01*
X018971Y003416D01*
X018894Y003493D01*
X018741Y003493D01*
X012971Y003416D02*
X012971Y003186D01*
X012511Y003186D01*
X012664Y003186D02*
X012664Y003416D01*
X012741Y003493D01*
X012894Y003493D01*
X012971Y003416D01*
X012817Y003646D02*
X012511Y003646D01*
X012741Y003646D02*
X012741Y003953D01*
X012817Y003953D02*
X012511Y003953D01*
X012817Y003953D02*
X012971Y003800D01*
X012817Y003646D01*
X009668Y003785D02*
X009515Y003631D01*
X009208Y003631D01*
X009438Y003631D02*
X009438Y003938D01*
X009515Y003938D02*
X009208Y003938D01*
X009208Y004092D02*
X009208Y004322D01*
X009285Y004398D01*
X009592Y004398D01*
X009668Y004322D01*
X009668Y004092D01*
X009208Y004092D01*
X009515Y003938D02*
X009668Y003785D01*
X009592Y003478D02*
X009438Y003478D01*
X009362Y003401D01*
X009362Y003171D01*
X009208Y003171D02*
X009668Y003171D01*
X009668Y003401D01*
X009592Y003478D01*
X008168Y003401D02*
X008168Y003171D01*
X007708Y003171D01*
X007862Y003171D02*
X007862Y003401D01*
X007938Y003478D01*
X008092Y003478D01*
X008168Y003401D01*
X008015Y003631D02*
X007708Y003631D01*
X007938Y003631D02*
X007938Y003938D01*
X008015Y003938D02*
X007708Y003938D01*
X007708Y004092D02*
X007708Y004322D01*
X007785Y004398D01*
X008092Y004398D01*
X008168Y004322D01*
X008168Y004092D01*
X007708Y004092D01*
X008015Y003938D02*
X008168Y003785D01*
X008015Y003631D01*
X006671Y003785D02*
X006517Y003938D01*
X006211Y003938D01*
X006211Y004092D02*
X006211Y004322D01*
X006287Y004398D01*
X006594Y004398D01*
X006671Y004322D01*
X006671Y004092D01*
X006211Y004092D01*
X006441Y003938D02*
X006441Y003631D01*
X006517Y003631D02*
X006671Y003785D01*
X006517Y003631D02*
X006211Y003631D01*
X006441Y003478D02*
X006364Y003401D01*
X006364Y003171D01*
X006211Y003171D02*
X006671Y003171D01*
X006671Y003401D01*
X006594Y003478D01*
X006441Y003478D01*
X006594Y004552D02*
X006671Y004629D01*
X006671Y004782D01*
X006594Y004859D01*
X006517Y004859D01*
X006441Y004782D01*
X006364Y004859D01*
X006287Y004859D01*
X006211Y004782D01*
X006211Y004629D01*
X006287Y004552D01*
X006441Y004705D02*
X006441Y004782D01*
X007708Y004782D02*
X008168Y004782D01*
X007938Y004552D01*
X007938Y004859D01*
X009208Y004859D02*
X009208Y004552D01*
X009208Y004705D02*
X009668Y004705D01*
X009515Y004552D01*
M02*
